# xmcd CD database file
#
# Track frame offsets:
#	182
#	13287
#	29050
#	45057
#	61435
#	74537
#	86510
#	100555
#	112412
#	127782
#	141567
#	157542
#	171592
#	186192
#	199165
#	212477
#	225465
#	239937
#	254292
#	268705
#	282022
#	295397
#	307847
#
# Disc length: 4274 seconds
#
# Revision: 0
# Processed by: cddbd v1.5.1PL0 Copyright (c) Steve Scherf et al.
# Submitted via: CDex 1.51
#
DISCID=5410b017
DTITLE=Robert Wilkins - Gus Cannon - Memphis Blues
DYEAR=1927
DGENRE=Blues
TTITLE0=Wilkins_Rolling Stone (Pt.1)
TTITLE1=Wilkins_Rolling Stone (Pt.2)
TTITLE2=Wilkins_Jail House Blues
TTITLE3=Wilkins_I Do Blues
TTITLE4=Wilkins_That`s No Way To Get Along
TTITLE5=Wilkins_Alabama Blues
TTITLE6=Wilkins_Long Train Blues
TTITLE7=Wilkins_Falling Down Blues
TTITLE8=Wilkins_Nashville Stonewall Blues
TTITLE9=Wilkins_Police Sergeant Blues
TTITLE10=Wilkins_Get Away Blues
TTITLE11=Wilkins_I´ll Go With Her Blues
TTITLE12=Wilkins_Dirty Deal Blues
TTITLE13=Wilkins_Black Rat Blues
TTITLE14=Wilkins_New Stock Yard Blues
TTITLE15=Wilkins_Old Jim Canan`s
TTITLE16=Wilkins_Losin` Out Blues
TTITLE17=Cannon_Jonestown Blues
TTITLE18=Cannon_Poor Boy, Long Ways From Home
TTITLE19=Cannon_Madison Street Rag
TTITLE20=Cannon_Jazz Gypsy Blues
TTITLE21=Cannon_Can You Blame The Colored Man
TTITLE22=Cannon_My Money Never Runs Out
EXTD=YEAR: 1927
EXTT0=
EXTT1=
EXTT2=
EXTT3=
EXTT4=
EXTT5=
EXTT6=
EXTT7=
EXTT8=
EXTT9=
EXTT10=
EXTT11=
EXTT12=
EXTT13=
EXTT14=
EXTT15=
EXTT16=
EXTT17=
EXTT18=
EXTT19=
EXTT20=
EXTT21=
EXTT22=
PLAYORDER=
